<svg xmlns="http://www.w3.org/2000/svg" viewBox="0 0 100 100"><path d="M87 78L82.8 78.4L81.8 77.9M75.4 79.3L76.3 79L77.6 79M15.3 43.7L14.1 43.9L11.6 41.4M15.9 35L15.7 35.6L11.4 40.7L11.4 41.4M70.6 47.5L70.7 51.2M69.9 54L70.6 53.6L70.7 51.6M70.7 51.6L75.2 50.7M35.9 9.8L41 6.4M36.3 11.9L40.5 9M39.8 11.5L37.2 13.2M39.2 1.1L37.5 2.1M36.7 9.3L35.4 7.4M39.6 9.6L38.6 8M38.6 4.9L37.5 3.2M38.6 2.5L39.7 4.1M39.2 1.1L40.8 3.4M35 4.8L36.2 6.5M69.4 9.1L70 5.4M89.1 0.4L85.9 0.1M89.3 3.4L87.7 2.5M71 0.2L73.2 0.6M52.3 0.5L48.3 -0.3M69.4 9.1L67.2 8M52.1 35.4L47.6 37.6M52.2 35.5L46 38.7M58.6 1.3L60.2 1.6M63.6 2.4L66.9 3M70.4 3.4L68.5 3M73.5 4.3L82 5.8M57.1 0.1L60.3 0.7M74.9 7.3L77.7 7.8M85.1 10.8L83.8 10M79.6 11.9L78.1 11.6M74.8 14.4L79.2 15.2M48.1 7.5L45.8 7.9M68.2 16.5L70.2 16.8M45.2 18.4L46.8 17.7M73.4 23.1L71.7 22.8M59.9 23L66.8 24.3M76 28L74.7 27.2L72.7 27M76.6 28.5L78.2 29.2M48.3 29.2L52.1 26.6M72.1 30.8L69 29.3M58.3 22.2L61.4 25.1M65 38.2L66.7 38.7M63.7 28.1L61.6 26.4M66.2 42.5L65.1 44.6M66.6 40.8L66.2 42.5M60.6 18L59.9 23M63.6 9.1L62.5 15.5M63.9 6.9L64.4 4.5M55.1 29L56 24.6M60.2 1.6L60.5 -0.1M53.8 26.5L59.1 27.4M67.9 14.6L67.6 16.4M62.3 18.6L62.3 17M61.5 15.4L61.7 16.3L62.3 17M63.9 17.2L65.2 9.1M56.7 1.8L56.5 4.2M49.6 14.3L49.8 1.8M45.5 7.1L49.8 1.8M46.3 9.3L48.2 9M45.2 7.2L44.8 11.4M44.9 -1.1L44.5 0.7M61.4 38.1L62.6 35.6L63 32.2M43.4 12.8L41.5 12.6M40.2 15.1L43.2 15.3M43.1 16.7L40.2 16.4M43.3 13.6L47 12.5M77.5 14.8L78.5 9.5M72.3 18.7L74.1 19M79 27L77.8 30.2M70.1 28.1L71.2 25.5L72.9 15.3M85.5 39.8L78.5 37.7M75.5 39.7L77.7 37.7M71.2 35.8L68.8 35.7M73.9 38.7L72.2 37.9M74.8 42.2L71.4 41.6M78.4 50.1L80.9 49.1M72.3 44.5L76.1 46.5M77 55.8L78.5 48.8L80.5 45.7L81.1 43.9M85.9 40.3L84.8 44.9M82 36.8L80.1 43.7M77.6 53.5L74.6 52.8M77.4 63.8L76.8 61.7M76.8 61.7L73.9 60.9M57.2 57.8L59 59.2M76.9 1.5L79.2 2.1M40.2 23.7L39.9 29.3M43.3 40.6L44.4 42.3M43.1 45.2L40.9 41.6M41.3 42.2L38 45.8M29.7 39.2L30.9 40.1L35.4 44.9M35.4 44.9L32 48.9M46.9 33.9L45.8 31.9M36.7 29.3L35 28.3L34.2 28.3M30.2 29.3L32.2 26.2M44.1 27.1L46.9 31.1M48.2 29.9L48.1 30.3L45.5 32M31.3 39.5L32.5 37.7L41.2 32M41.2 34.8L38.6 30.8M32.5 37.7L35 41.5L37.3 43M46.7 52L48.4 53.4M23.6 88.1L24.6 86.5M51 52.1L53.4 50.7M57.2 50.1L56.3 49M52.3 64.9L50.8 66.8M58.7 66L53.9 62.6M52.1 61.1L50.7 60.1M40.5 47.9L38.4 49.1M56.9 49.7L54.6 52.3M51.6 53.1L54 51.6M50.4 54L51.9 55.4M55.4 53L53.8 55.2M50.7 60.1L49.2 62.2M44.8 57.6L48.4 60.3M40.2 43.1L41.4 44.6M37.1 45.1L38.3 43.5M37.4 28.9L36.5 30.3M41.4 73.7L38.8 71.9M73.4 85.3L71.8 83.6M56.5 70.7L58.4 71.9M43.8 65.4L42.2 67.4M49 62.5L47.6 64.5M48.1 64.9L44.7 69.2M39.3 65.3L37.1 63.7M47.2 62L42.7 61M44.3 62.2L42.6 64.5M50.1 64.5L48.4 63.3M42 57.7L40.3 60M40.3 60L42.1 61.3M22.6 41.5L22.7 42.3L18.3 47.7M15.6 49.5L13.1 51.1M22.9 45.2L21.3 44M14.7 45.6L15.3 45.6L17.7 47.5M35.4 60.1L34.3 61.5M30.3 61.6L27.9 64.2M30.4 59L29.2 60.4M65.1 59.5L66.5 57M65.1 65.3L61.7 71.3M74 65L74.9 63.1L73.1 62M76.6 68.4L76.1 68.8L74.4 67.8M64.7 68.3L67.8 70.1M74.8 74.3L78.2 76.2M77.8 79.1L76.6 82.8M63.7 81.9L67.3 84M70.9 84.2L71.7 85.4L72.9 86.2M64.7 85.4L66.3 85.9M48.2 84.4L50.4 85.9M43.9 91.2L46.3 92.7M51.9 99.5L49.5 98.1M60 85.7L58.6 88M65.4 92.6L66.9 90.1M63.6 100.7L67.8 94.1M74 88.2L72.5 90.3M71.5 92.1L69.6 95.4M68.8 93.6L70.2 94.4M70.6 93.5L69.3 92.8M77.4 80.2L75.8 79.8L75.4 79.3M76.1 84.2L75.4 84.9L73.4 85.3M82.6 81.5L85.1 83L85.3 83.5L84.5 83.6M80.4 77.7L83 79.4L84.4 80.9M83.5 80.1L82.6 81.5M76.2 64L75.6 65.6M16.8 98.6L19.5 100.7M8.7 56.1L13.4 59.8M46.4 86.3L44.7 85.1M16 66.2L26 73M14.1 68.4L24.7 74.9M43.9 79.1L44.1 79.9L43.4 81.3L40.4 82.8L38.6 84.5M44.1 82L42.3 83.5M40.7 85.9L42.3 83.5M33.2 97.2L30.7 100.8M44.3 78.3L42.3 76.9M44.3 78.3L46.2 79.9M46 83.2L44.7 85.1M16.4 60.2L12.3 56.5M12.7 56L10.4 54M8.8 51.3L6.8 54M26.8 71.8L29.6 73.6M14.8 70.7L17.7 72.7M21.6 75L19.6 73.8M19.1 74.6L17.3 73.4M22.1 78.7L18.4 76.3M33.7 87.8L32.2 86.9M32 87.3L32 89.9M28.8 87.2L23.6 83.7M17.6 80.7L23.1 84.4M22.3 85.7L20.1 84.1M16.7 78.7L18.3 79.7M28.5 91.5L25.1 89.2M8.3 77.5L7 76.5M29.6 90L31.7 87.1M30.8 86.5L27.7 90.9M27.4 70.9L30 66.9M23.4 81.6L22 83.6M22.3 80.8L20.9 82.9M23.8 74.3L22.2 76.5M28.6 65.6L27.6 66.9M16.7 78.7L15.4 80.8M23.7 66.2L25.8 63.2M16.8 74.2L21.7 66.9M16.4 77L17.6 74.9M12.8 78.7L11.3 81.1M11.4 77.6L9.9 80.2M10 76.6L8.4 79.1M20 58.1L14.6 65L6.2 77.6M6.8 73.2L8.3 74.4M6 74.3L7.6 75.6M13.4 59.8L15.4 61.4M15.5 59.4L14.4 60.6M23.5 71.1L24.9 69.1M21.2 80.1L18 80.9M31.6 17.5L28.4 14.8M30.8 18.4L27.5 15.7M35.8 17.3L33.2 14.1M28.5 18.3L27.2 20.3M36.8 15.3L32.9 18.6M36.4 16.5L34.1 19.3M12.7 -1.7L14.9 1.8M25.6 17.9L27.8 19.4M30.7 8.5L25.3 12M25.5 3.2L23.4 4.6M21.9 -0.2L23.8 0.8L23.8 1.3M17.4 2.4L19 1.3L19.3 0.5M29.5 14.1L28.3 12.2M27.6 1.7L29.3 4.4M8.6 4.3L11.9 2.1M11.1 0.9L7.9 3.2M0.6 3.3L3.2 1.6M5.6 -0.2L8.6 4.3M1.8 4.1L3.3 6.3M-0.6 -0.9L1.1 1.4M11.2 14.6L12.2 16M10.5 17.4L12.2 16M9.4 16.1L10.5 17.4M16.6 90.7L19.1 91.7M20.2 100.6L21.1 98.3M13.9 99.5L13.2 101.3M12.4 94.5L11.9 96.8M50.1 92L47.8 90.5M80.5 4L81.1 1.2M21.5 91.3L20.6 93.6M23.9 94.9L23 96.2M22.7 92.1L22.1 93.7M18.7 88.9L17 93.5M3.5 86L13.9 89.9M7.4 87.4L7.9 86.1L7.9 81.5M6.5 83.6L5.5 86.7M8 87.6L8 89.5M4.9 86.5L4.1 88.9M24.9 97.4L26.5 95.2M11.1 94.5L9.4 93.8M6.3 94.9L8.4 91.8M-1.2 90.5L4.4 92.5M-0.1 88.8L4.8 91.3M5.7 99L4.9 101.7M7.9 95.4L6.8 99.4M14.8 98.1L14.4 99.7M8.5 38.7L-1.2 29.8M-0.2 84.3L1.4 82.1M1.6 77L0 79.3M4.1 82.1L5.7 79.9M3.9 78.7L2.3 80.9M23.5 22.3L22.5 25M18.3 21.6L19.3 24.8L19.9 28.6M29.1 22.7L25.8 27.2M19.9 28.6L16.4 25.6M13.5 24.6L11 27.4M10.5 24.4L12.2 26M18.6 27.5L15.1 31.3M4.5 26.5L10.5 32.1M13.7 38L5.2 30.1M11 44.8L2.3 37.1M11.2 38.3L7.9 42M1.9 45.5L-0.1 43.6M3.9 43.7L-0.8 47.8M62.1 81L60.5 83.7M59.4 81.7L61.1 82.7M73.7 43.4L71.1 42.8M75.1 12.4L72.9 11.9M87.6 0.2L87.7 2.5M88.5 2.1L88.5 0.3M17.6 88.1L19.9 89.6M11.4 23.2L5.6 22.6M40.2 23.9L37.4 28.9M68.6 91.1L67.9 94.3M55.6 87.7L53.3 86.2M55.9 92.5L54.5 94.8M77.1 78.2L79.8 77.4L80.4 77.5M59.1 75.8L55.3 82.7M73.3 34.3L71.6 33.5M4.6 98.7L3.8 101.4M10 94.1L9.4 95.9M17.7 98.7L18.2 97.2M62.9 69.1L59.1 66.3M61 86.3L62.3 87.1M69.3 3.2L69.6 1.4M73.2 23.9L76.7 25.8M74.5 80.2L72.9 78.5M80.9 77.7L82.6 78.6L84.4 78.2L87.8 78.3M63.9 47.9L65.2 45.7M70.7 1.6L70.4 3.4M44.1 4.3L44 5.8M78.8 72.6L76.5 71.1M79 74.4L77.5 77.6L77.6 78M64.1 70.5L67.8 72.8M85.2 2.1L84.5 -0.7M35.3 1.6L34.1 3.5M68.7 31.9L69.2 31.5L70.6 32M82 69L81.8 70.3L82.2 71.5M78.6 68.4L80.9 68.2M79.4 69.3L82 69.7M94.1 14.3L94.9 12.3L96.3 10.7M96 14.1L94.7 13.2M54.2 100.9L51.9 99.5M56.7 96.2L59 97.6M59 97.6L61.2 99.1M61.2 99.1L63.6 100.7M68.2 100.4L56.7 93M64.2 94.5L70 97.9M69.6 95.4L63 91M66.9 90.1L68.8 91.2M64.6 88.6L66.5 89.9M69.3 88.5L72.5 90.3M69.5 87.5L72.5 88.6M72.5 86.9L74 88.2M69.9 85.5L72.5 86.9M59.8 101.3L61.2 99.1M61.2 99.1L62.6 96.8M62.6 96.8L64.2 94.5M64.2 94.5L65.4 92.6M59 97.6L57.8 100M62.3 87.1L63.4 85.3L64.7 85.4M57.3 90.1L56.4 91.7M48.1 100.8L52.2 93.8L52.3 92.8L53.2 91.2L60.4 80L62.5 75.1M48.7 94.2L45.5 99.7M50.1 92L48.7 94.2M54 85L52.7 87.3M44.9 95.1L42.9 98.3M46.3 92.7L47.8 90.5M47.8 90.5L49.2 88.1M51.1 84.7L55.5 76.8M55.5 76.8L56.9 74.4M58.4 71.9L59.4 70.2M53.6 75.6L62.1 81M54.6 72.8L50.5 70M61.5 77.4L59.1 75.8M52.1 78.1L54 79.3M63.7 81.9L62.3 84.4M65 79.6L63.7 81.9M65.7 77.7L65 79.6M66.8 75.2L65.8 77.5M48.7 94.2L46.3 92.7M44.9 95.1L42.4 93.6M47.3 96.6L44.9 95.1M68.2 97L67.2 98.6M62.2 84.6L61 86.3M69.5 87.5L68.8 91.2M69.4 79.6L67.1 84.3M70 97.9L70.5 97.5L70.6 96.3L72.2 94.5M50.3 81.2L55 80.9L60.8 84.3L64.6 85.1L66.2 84.7L66.7 85M79.4 79.4L79.9 77.9M77.6 79L79.4 79.4M70.4 84.5L73.1 82.5L74.5 80.2M67.8 72.8L71.3 74.8M72.1 72.8L68.7 70.6M74.3 74.1L72.1 72.8M70.9 65.6L72.9 66.9M79.5 74.7L77.1 73.1M74 65L72.9 66.9M74 65L75.6 65.6M62.3 50.6L58.7 55.5M57.2 57.8L58.7 55.5M56.7 54L60.8 57M59.4 54.6L57.9 53.5M57.2 57.8L55.8 60M59 59.2L61.2 60.3M52.5 64.6L55.8 60M56 67.2L61.2 60.3M62.6 63.9L65.1 59.5M60 64.9L63.9 67.3M61.5 71.6L59.1 75.8M66.9 60.5L67.4 58.4M46.2 79.9L48 78.3L55.8 67.5M50.8 66.8L56.1 70.4M46.3 67.2L40.8 63.2M48.9 72.2L53.2 75.3M49.5 76.3L51.7 77.9M47.1 74.6L45 73M45.6 76.6L48 78.3M48 78.3L49.3 79.2M66.5 57L65.4 55.5M74.1 55.1L79.6 56.4M68.1 55.9L69.5 54.4M75.4 49.7L70.6 47.5M80.9 49.1L78.6 46.7L76.4 45.5M76.4 45.5L73.8 44.3L72.3 44.1M77.1 60.7L76.8 60.1L75.7 60.2M75.7 60.2L75.7 56.8L75.4 56.4L75.6 55.5M78.8 48.2L75.9 47.5M84.3 38.6L82.3 46.5L80.9 49.1M85.2 45L77.1 42.9M86.6 43.2L77.7 40.7M41.9 77.4L43.9 79.1M39.3 84.9L40.3 84L42.3 83.5M43.4 81.2L40.7 79.5M44.7 85.1L43.1 87.4M44.7 85.1L39.7 81.7M37 83.4L35.2 82.3M41.5 90L43.3 91.1M34.8 85.8L33.4 85M26 98L22 95.6L20.2 95M34.9 100.2L28.5 96.1M28.3 99.4L27.4 100.8M42.8 98.6L41.8 100.2M72.5 86.9L73.4 85.3M76.1 84.2L78.1 85.4M69.8 91.8L71.5 92.1M74 82.6L76.1 84.2M47.8 90.5L46.5 89.7M53.1 58.2L51.4 60.7M41.3 97.9L42.8 98.6M45.4 99.9L44.6 101.3M81.2 30.5L80.4 30.5L78.2 31.6L77.1 31.5M53.8 30.8L58.4 31.7M63 32L64.1 26.1M68.5 35.5L66.8 37.8L66.6 40.8M66.7 38.7L70.1 39.6M68 28.8L63.7 28M65.8 29.7L65.1 32.5M70.3 33L68.3 31.6M63.7 28.1L65.8 29.7M59.1 27.4L58.2 33M54.7 37.1L53.4 34.6M59.1 38.6L55.5 36.5M48.8 42.8L53.6 50.3M53.8 55.2L51.6 53.1L51 52.1M46.5 23L51 29.9M53.8 26.5L54.3 24.3M56.5 39.2L59.5 43.4M40 29.8L40.5 24.6M53.2 14.1L50.4 14.2L48.1 14.6M35.3 32.9L36.6 35M53.4 50.7L54.6 52.3M47.8 61.2L51.1 56.6M41.4 28.9L44.1 32.9M50.9 51.9L45.8 44.1M56.1 48.8L53.7 50.3M45.8 46.8L49.7 52.7M52.4 23.9L52.2 25.3L51.8 25.2M53.8 55.2L52.2 57.5M49.7 18.9L55.1 19.8M53.3 17.4L52.4 23.8M63.3 30.5L57 29.4M52.2 51.2L47.3 43.8M50.5 21.3L58.2 22.8M51.4 10.4L51.1 14.1M35 41.5L41.2 37.5M44.5 36.8L45.5 44.1M62 38.5L65 32.7M60.6 41.2L58.3 40M34.2 28.3L32.8 27.3M43.3 26L40 28.3M38.1 48.4L41.4 44.6L47.1 40.4M39.1 48.8L39.4 49.4L52.2 59.5M28.6 42L31.1 39.2M34.8 33.4L39.9 29.9M41.2 37.5L36.7 30.6M37 40.2L33.7 35.1M43 40.2L40.9 41.6M46 38.7L48.8 42.8M39.9 39.9L40.9 41.6M28.9 28.3L31.3 30.3L31.4 30.8M44 35.8L45.8 38.4M42.3 34.1L43.5 36.1M48.7 42.9L52.1 48.4M50.7 60.1L39.3 51.3M39.9 55.4L39.3 51.3L38.1 48.4L35.9 44.7M35.8 44.7L31.1 39.2M45.8 46.8L49.7 44.3M38.4 27.4L39.9 29.9M28 36L31.4 30.8M42.9 33.7L44.2 35.7M42.6 33.9L40 29.8M51.6 53.1L49.8 54.3L49.2 55.1M52.2 48.3L46.4 52.2M51 46.5L46.1 50M40.4 55.9L45.5 49M37.1 63.7L33.1 68.9M29.2 60.4L32.5 63.6M18.3 47.7L15.5 45.5L15.4 44.7M47.2 62L44.4 65.8M46.1 70.2L42.2 67.4M27.4 56.5L28.4 54.7M25.9 58L19.7 52.8M34.4 59.3L30.9 63.5M31.8 49.2L29.7 51.7L28.2 54.2M29.6 52.4L34.8 56.4M27.3 56.7L34.1 61.7M28.1 54.5L25.9 58M23.9 60.8L27.3 56.7M41.6 62L47.2 66.1M15.6 49.5L13.6 47.2M49.3 65.7L42.4 60.9M19.4 52.6L15.6 49.5M34.1 58.3L28.4 54.5M28.1 54.3L25.4 52.4M44.5 72.6L37.7 67.6M19.9 48.8L18.3 47.7M30.3 66.4L34.3 61.5M25.2 52.6L28.1 54.5M41.4 73.7L40.4 75.3M31.9 54.2L29.1 57.7M19.8 48.9L21.4 50M42.2 67.4L37.8 73M39.3 65.3L42.2 67.4M43.8 59L39.3 65.3M18.1 47.8L19.8 48.9M24.7 47.6L27.5 49.9M25.4 52.4L21.9 50.1M28.4 54.5L29.6 52.4L32 49.4M25 59.1L31.3 65.2M21.7 50.3L25.2 52.6M31.8 60L34.8 56.4M42.9 74.7L41.4 73.7M34.3 61.5L27.4 56.5M25.4 52.4L27.5 49.9M21.6 49.9L19.9 48.8M19.9 48.8L24.5 43.2M21 58.1L22.9 55.5M25.3 67.4L21.4 64.5M32.4 69.1L30.1 72.6M18.5 60L15.5 57.4M10.1 68.9L15.3 62.2M8.7 56.1L-0.7 68M27.6 66.9L18.5 60M24.8 67L22.3 70.6M27.6 66.9L25.8 69.7M13.3 55.4L11 53.2M15.9 65.9L5.1 57.4M11 53.2L9.7 52.1M15.5 57.4L13.3 55.4M22.4 60.3L21.2 62M32.7 74.3L38.4 78M15.3 62.2L27.4 70.9M15.4 61.4L19 57.4M26.4 65.9L24.9 67.9M22.8 67.7L21.3 69.9M29 74.6L27.7 77.3L20.7 87.9M37 80L29 74.6M37.3 73.4L28.7 84L26.3 87.4M23.6 61.3L17.2 70.3M21.9 70.3L20.6 72.4M32.7 74.3L34.9 71.3M24.7 74.9L26 73M6.4 73.7L-0.7 68M31.2 90.9L22.7 84.9M12 81.7L16.8 74.2M19.1 91.7L21.1 92.4M10.8 83.5L8.4 87.8M35.2 82.3L37 80M25.1 89.2L21.6 86.6M18.7 75.7L12.7 70.9M17.6 83.9L12.8 80.5M17.2 70.3L10.6 80.7M5.8 81.6L13.7 86.7M19 83.4L14.4 80.1M19 78.6L16.8 81.8M31.4 83.7L29.8 85.9M21.2 80.1L23.2 77.1M27.6 92.8L28.5 91.5M18.9 65L13.9 71.9M5.2 75.2L10.1 68.9M9.2 76L7.9 75.1M13.9 71.9L9.1 79.6M27.8 77L29.7 78.6L35.2 82.3M27.8 88.7L26.7 90.2M17.5 77.6L18.7 75.7M22.6 85.1L31.1 91M25.4 80.8L22.1 78.7M20.9 82.9L19.4 85.2M24.6 86.5L31.4 76.2M17.4 85.5L21.2 80.1M19.4 85.2L21.6 86.6M33.4 85L26 79.9M18.3 87.3L17.6 88.1L16.1 92M16.4 77L13.6 81.1M24 71.7L19 78.6M12.5 70.7L1.4 61.8M7 76.5L2.8 73.3M19.1 74.6L23.2 77.1M11.7 86.6L5.1 82.8M12.4 89.3L14.7 84.8M-0.1 72.2L14.9 53.6M14.1 85.9L7.9 81.5M12.6 84.9L10.1 90.4M20.6 72.4L19.1 74.6M9.4 76.2L13.6 79.2M11.7 86.6L13.3 87.5M-0.3 64.4L9.7 72.3L32 87.3M-1.7 85.1L1.1 87M8 89.5L8.1 91.7M5.1 82.8L0 79.3M3.1 88.3L8.9 92.2M19.5 93.6L11.7 93.3M-0.6 82.7L1.3 80.2M16.1 92L15.6 93.4M0.5 76.2L3 78M25.4 93.9L27.7 94.1M16.1 92L10.1 90.4M6.2 87L3.9 94M16.4 95L19.7 96.2M20.5 100L17.7 98.7M-0.5 94.8L0.1 92.8M8.7 93.6L6.2 91.9M11.9 96.8L11.4 98.6M10.1 90.4L9.7 92.4M1.2 99.7L3 93.7M13.9 93.4L14.3 91.6M-0.8 80.3L2.4 82.8M11.3 93.9L10.6 96.4M-0.5 94.8L4.2 96.3M8.9 99.4L8.5 95.6M20.2 95L19.2 97.6M11.4 98.6L11 100.6M6.8 99.4L6.1 102.1M3.8 97.4L5.3 93.3L6.9 90.9M1.2 93.1L5.6 94.6M19.9 89.6L16.7 98.1L16.8 98.6M1.1 99.9L-0.6 99.4M81.1 1.2L81.5 -1.5M81.1 1.2L79 0.7M85.8 0L86.9 2.4L87.2 3.9M87 2.7L86.3 2.8L85.2 2.1M77.1 0.3L75.4 0M86.8 8.6L85.1 10.8M80.7 9.9L79.2 9.6M75.3 11.1L73.7 10.8M71.1 13.5L68.7 11.6M76 21.7L72 20.9M75 24.9L76 21.7M74.1 19L76.5 19.4M73.6 13.9L72.1 12.4M78.9 7.4L81.3 7.8M78.1 11.6L75.3 11.1M72.5 8.5L75.7 9M78 6.6L75.1 6.1M82.5 23.4L79.6 19.7L78.6 19.1M80.8 27.7L79.3 31.1M84.8 32.5L81.2 30.5M96.5 25L95.3 24.9L94.7 25.9L94.2 26.1L93.4 25.4L91.3 24.7L88.2 22.7L86.9 23.3L85.8 25L85.4 25.1L85 24.5L85.6 22.6L84.7 22.6L83.7 23.3M68.1 55.9L68.4 54.4M80 29.9L78.2 29.2M59.9 23L59.6 25.1M65.4 18.9L66.6 11.3M58.2 12.4L59 8.1M67.2 8L68 3.2M64.5 13.5L60.1 12.8M57.9 4.7L55.5 17.7M56.8 20.1L57.8 14.8M57.8 14.8L58.2 12.4M58.3 3L57.9 4.7M67.2 8L64.9 7.5M65 6.8L71.1 8M47.6 20.2L44.5 21.6M68.8 19.9L65.4 18.9L62.3 18.6M65.8 16.1L61.5 15.4M55.2 19.5L54.3 24.1M44.8 11.4L46 15.3M63.9 17.2L67.9 17.9M43.9 6.4L43.1 16.7M43.5 11.4L44.8 11.4L46.5 11M56 24.4L56.7 20.6M46.8 10.9L51.4 10.4M68.2 16.5L67.2 22.1M67.9 13.7L69.1 14.8M47.8 14.7L43.1 16.3M61.1 15.4L62 11M43.3 14.1L44.3 15.9M64.8 7.9L67.1 8.4L69.6 10M70 5.7L71.2 7.5M70 5.4L68.4 3.3M43.4 0.5L52 2M47.9 1.5L48.3 -0.3M49 14.4L47.9 5.2M67.6 2.7L63.7 2.2M70.4 3.6L72.5 4M45.2 6.3L46.7 -0.7M70 5.4L70.4 3.6M66.1 0.7L67.6 2.7M43.9 2.6L46.6 3.2L48 4M68 3.2L70 5.7M61.8 4.1L72.2 6M65.8 2.6L65 6.8M48 4L48.8 4.6L53.8 4.7M64 0.4L63.3 4.4M62 1.5L63.7 1.8M52.1 48.4L53.4 50.5M64.4 -1.4L65.8 0.4M68.4 0.4L67 -1.3M23.4 4.6L21.3 6M28.1 11.9L21.3 1.4L20.6 1M29.3 4.4L32.3 9M31.6 17.5L32.9 18.6M27.2 5.9L30.2 10.4M29.2 6.2L31.4 9.6M25.3 1.7L25.5 3.2L27.2 5.9M17.8 5.2L23.8 1.3M20.1 8.6L28.5 3.1M22.5 12.3L29.9 7.3M18.1 3.6L16.6 1.2M34.4 10.8L28.4 14.8L26.6 16.7M34.3 15.4L32.4 16.8L29.9 19.4M35.8 12.2L33.2 14.1M27.2 5.9L21 10M15.2 2.2L16.6 4.4L17.9 5.3L20.1 8.6M23.1 8.6L19.3 2.8M29.2 6.2L21.7 11.1M25.3 1.7L18.5 6.1M21.3 6L19.3 7.3M10.4 -0.1L12.6 3.2M11.5 -0.9L13.8 2.5M2.2 9.2L-0.1 6.7M6.9 7.1L1.6 -0.4M-1.3 3.5L1 6.3M6 2.9L10.4 -0.1M13 13.3L20.1 8.6M0 6.9L5.8 3M0.3 5.2L3.9 2.6M5.4 4.8L1.9 7.3M2.6 8.4L6.2 6M2.2 0.3L-0.1 2.5M9.6 -1.3L6.3 0.9M71.1 -0.8L70.8 1.3M11.5 30.9L2.2 41.3M16.4 25.6L11.8 30.8M0.2 39.5L2.3 37.1M19.3 24.8L22.5 25L24.3 25.9M21.4 29.1L24.3 25.9M29.5 26.5L25.9 23.6M12.2 26L14.3 28M19.9 31.1L13.2 24.8M20.2 30.8L16.3 34.9M12.6 34.2L13.7 33M12.6 24.4L10.7 24.3M14 45.4L11.7 47.7M16.4 25.6L13.5 24.6M10.5 32.1L12.6 34.2M4.3 34.8L8.4 30.2M14.3 28L18.8 32.3M11.7 47.7L9.9 46.1M1.4 34.2L-0.5 32.5M0.4 35.3L-1.6 33.7M12.8 13.4L9.4 16.1M0.6 31.3L-0.5 32.5M11.4 41.4L14.2 44.4L14.3 45M-1.9 29.1L5.8 25.9M8.7 56.1L7.5 55.1L7.5 54.4M2.2 50.5L6.4 46M3.4 51.6L-1 56.6M-1.1 59.8L4.6 52.7M4.3 52.4L8.4 47.7M-1 56.6L2.3 59.4M-0.8 50.7L0.8 52.1M38.6 8L37.3 6.2M41.5 0.6L36.9 3.6M40.5 9L38.3 5.6M39.4 4.9L40.5 6.7M35.3 1.6L36.4 2.1L37.5 2.1M32.4 4.8L31.9 3.8L32.2 2.8M30.1 0L31.7 0.7L33.7 1L36.5 -0.4M92.6 5.9L90.9 4.7M90 5.3L90 7.8M90 7.8L91.9 8.8M90.4 8.1L91.5 5.2M96.8 0.7L98.3 1M97.9 5.9L98.5 4.3M93.8 9L95.2 4.7L95.3 1.2M77.8 43L79.2 37.9M79.7 38.1L78.3 43.2M80.6 38.3L79.2 43.4M82.9 41L81 40.5M87.5 45.1L89.5 41.3M83.8 44.6L85 39.7M85.5 39.8L84.8 42.7M82.6 42.1L82.2 44.2M66.9 2.8L66.2 7.1M52.6 81L60 85.7M65.3 19.1L67.6 19.7M-1 7.2L1.5 9.8M84.2 48.2L83.1 47.8L82 48.2L79.6 45.2L76.8 44.2M84.1 46.1L82.1 45.7L80.4 45.9M85.1 31.3L85.7 31.7L86.2 31.5L86.3 29.6L88.1 28.4L88.8 26.6L88.5 25.2L88.8 24.6L89.4 24.6L90.8 25.6L93.2 25.9L94.4 26.5M80.1 69.4L79.9 70.3L80.2 71.1M40.6 71.3L42.3 72.4M39.7 72.6L41.3 70.3M56.5 83.5L57.3 82.2M76.6 82.8L75.5 82.4L74 82.6M83.1 85.7L84.2 84.1M5.4 13.9L2.9 11.3M4.3 16L0.9 15.6M-0.4 24.6L2 26.8M1.4 12.3L2.3 11.1L2.9 11.3M1 23.2L4 26M4.3 16L4.7 13.2M69 1L69.4 -1M61 1.8L60.6 3.8M58.6 47.4L56.1 48.8M78.6 56.2L79.2 53.4M62.8 40.4L62 38.5M84.4 5.3L85.2 2.1M41.4 13.9L43.3 14.1M8.5 38.7L12.6 34.2M5.3 37.7L7.5 39.7M1.4 12.4L2.6 13.5M2.6 13.5L2.6 15.8M97.1 0.1L96.5 0.5L95.5 0.6M95.3 7.9L96.3 5.8L98 4.5L97.6 2.8L99.5 0.3M100 4.4L99.5 3.9L99.1 2.4M98.6 10.2L96.3 10.7M98.1 6L96.5 5.5M94.9 3.3L96.5 3.5M94.2 8.3L95.7 9.1M92 1.2L93.5 1.5M92.5 4.9L92.9 2.9L92.9 1.3M91.3 3.9L90.6 5.3M91.4 7.2L92 8.3L91.9 8.8M95.9 3.4L95.3 7.7L95.8 9.8L95.2 10.9M92.7 10.9L91.7 11.8L91.7 13L92.3 14.3L91.4 16.7L92 17.7L91.9 18.7L92.2 19.3M95.4 15.5L93.6 15.6L92.9 15.1M92.9 15.1L92.1 13.6M94.1 14.3L93.5 12.5M98.8 16.9L99.6 15M75.4 56.4L74.9 56.9L74 58.9M74 59L74.7 60.1L75.7 60.2M76.4 59.3L77.9 59M75.7 59.7L77.1 58.5M75.7 56.8L76.1 57.6L77.1 58.5L78.8 57.6M72.2 48.2L71 51.5M78.6 46.7L79.6 45.2M82 42.5L81.6 44M84.6 39.5L83.4 44.5M82.5 37.2L82.1 38.8M81.9 40.8L82.5 38.9M79.5 37.7L81.6 38.3M72.9 11.9L73.2 13.1L74.9 13.7M60.9 37.9L58.7 42.3M57.4 33.8L59.2 34.8M49.1 23.8L51 27.4M51.5 24.9L48.9 26.4M38.6 4.9L36.4 4.3M10.6 10.1L6.3 13.2M72.5 88.6L71.5 89.9M71.5 88.1L70.8 89.5M69.8 91.8L68.8 93.6M71.1 92.1L72.1 90.3M32.4 93L30.3 94.4M36.6 87.1L41.5 90M60 12.8L54.3 11.8M68.7 11.6L69.6 10M46 25.8L49.1 23.8M41.2 25.7L42.5 24.8M57 77.8L55.6 80.3M96.5 25L96.5 24.3L95.1 22.9L95 22.2L95.7 21.9L97.7 22.2M52.3 -0.4L51.8 1.5L51.6 6.2M74.1 8.7L73.7 10.8M92 2.4L91.9 0.4M3.4 83.6L1.2 86.9M52.7 84.2L52 85.6M38.2 25.2L38.9 23.9L40.1 23.7M71.8 7.6L70 5.4M81 77L79.5 74.7M23.2 77.1L24.7 74.9M57.2 -0.8L56.9 1M43.3 26L44.2 25.3L44.7 25.5M59.7 83.6L58.9 84.9M60.8 84.3L60 85.7M8.9 47.2L11 44.8M45.8 38.8L48.7 42.9M78.3 18.9L76.1 16.1L74.7 15.5M61.5 5.6L64.3 8.3M28.3 99.4L26.6 98.3M11.6 92.2L15.1 88.8L16.9 86.3M62.6 35.5L60.4 32.7M81.9 91.2L83.5 92.8L85.8 92.5L86.6 93.8L88.8 95.3M62.3 17L63.9 17.2M86.5 40.5L85.5 44.2M73.7 76.3L77.1 78.2M44.2 99.3L46.2 95.9M22 95.6L22.7 93.7M2.1 100.3L3.8 98.4M67.2 84L64.9 84.8L61.1 84.1L56.3 81M67.9 2.6L66.5 0.8M61.4 38.1L56 35M55.5 98.6L57.8 100M56.7 96.2L54.5 94.8M40.1 100.1L41.3 97.9M46.3 92.7L44.9 95.1M65.8 77.5L69.4 79.6M10.3 93.2L15.1 96M69.3 95.4L68.2 97M72.9 66.9L74.4 67.8M78.7 43.3L80.1 38.2M86.6 43.2L88.9 45M6.8 49.5L8.8 51.3M73.9 38.7L75.5 39.7M75.3 35.8L73.9 38.7M62.7 42.2L63.3 42.2L64.3 44.2M62.8 54.5L60.6 52.9M28.9 18.6L26.1 16.2M18.7 34.9L17.5 33.6M20.7 30.4L23.3 33.1L23.1 34.2M32.2 57L30.5 59.1M39.7 81.7L37.8 83.9M49.9 70.8L47.9 69.4M78.5 9.5L79.3 5.3M83.3 10.7L85.4 7.8L87.2 6.3L87.3 5.6M64.4 44.1L63.1 41M1.3 4.4L-0.1 2.5M32.2 2.8L34.1 3.5M36.4 2.1L35.8 3.7M51.6 6.2L51.4 10.4M51.6 6.2L52 1.7L52.5 -0.3M11.6 41.4L11.5 40.8L12.4 39.7M46.9 31.1L48.2 32.5M96.3 1.4L98 2.1M3.9 65.1L2.5 64M79.2 9.6L75.7 9M63.4 47.7L62.8 47.5L62 48.2M58.3 40L60.8 35.6L61.8 34.5M65.6 45L67.3 46.2M72.2 94.5L72 94L72.9 91.5M72.3 100.1L73.2 99.4L73.8 98M92.6 12.2L100.1 15.2M99.5 6.7L99 7.2L98.6 10.2M35.5 4.5L32.8 6.2M35.2 7.1L33.3 4.2M43.2 18L40.5 17.8M67.2 22.1L64.8 21.6M68.5 11.8L71 13.8M61.4 4.9L60.2 3.8M60.2 33.1L56.5 39.2M57.5 60.9L54.1 59M51.1 56.6L54.6 52.3M45.8 46.8L45.9 48.4M67.5 45.9L65.6 44.9M29.8 85.9L27.9 88.5M12.2 101L13.9 93.4M10.1 98.2L14.4 99.7M10.1 98.2L9.7 99.6M25.1 89.2L26.3 87.4M19.2 97.6L15.9 96.3M29.1 34.3L32.2 36.2M3.9 9.2L2.9 9.7L2.2 9.2M33.6 23.3L35.1 23.6M0.8 61.3L-1.1 59.8M62.2 22.6L63 18.5M71 8.4L70.6 10.1M9.9 46.1L8.1 44.6M14.1 50.4L12.6 48.4M69.8 82.6L71.8 78.7M54.6 100.2L59.6 91.6M66.9 90.1L68.3 87.8M32.3 49.1L35.5 45.1M26.9 36.3L30.3 39.7M37.5 42.7L41.8 46.4M41.5 37.9L42.5 36.7M96.3 10.7L94.4 11.1L92.7 10.9M97.1 0.1L96.3 1.4M6.1 25L0 27.7M10.3 23.7L6.3 25M12.8 21.6L13.3 21.6L14 22.4M41.3 11.2L43.5 11.4M21.1 22L21.1 24.8M20.6 1L19.8 2.4L18.1 3.6M4.2 9.6L4 11L6.3 13.2M24.7 32.4L21.4 29.1M17.5 33.6L9.3 25.8M6.6 25.6L9.9 24.4M16.7 43.1L21.4 47M21.3 44L18.3 41.3M4.4 56.9L-0.1 53.1M2.9 59.9L11.6 66.9L14.1 68.4M18.7 95.8L19.5 93.6M46.4 52.2L42.2 57.3M4.2 84.3L12.8 88.4M35.3 70.8L37.7 67.6M35.4 66L37.7 67.6M62.4 49L62.6 47.9L63.4 47.7M64.1 48.1L64.7 48.5L65 49.4M57.8 14.8L54.1 14.3M59.1 43.8L62 38.5M50 92.1L52.3 93.4M53.5 90.9L46.9 86.6M72.6 50L73.1 48.6M54.5 94.8L53.2 97.1M80.3 72.6L79.5 74.7M33.8 90.6L35.4 91.6M35.4 91.6L34.4 93.2M34.1 3.5L32.4 4.8M52.2 32.3L53.7 31.3M53.3 34.4L52.2 32.3M51 29.9L52.2 32.3M38.6 84.5L36.6 87.1M72.5 3.8L70.4 3.4M77.1 31.5L75.2 30.8M69.4 79.6L70.8 80.4M30.9 39L25.1 32.9M85.6 96.3L86 95.3L87.2 95L87.2 94.3M97.7 22.2L100.2 22.3M28.1 59L29.5 60.1M30.2 58.8L31.8 56.8M7.4 95.2L10.3 93.2M93.9 2.5L92 2.4M68.4 3.3L70.4 3.6M93.3 16.8L92.9 15.1M91.7 5.3L91.4 7.2M74.6 16L75.9 16.7L77.4 19.3L78.2 19.7M31.1 39.2L33.7 35.1M34.8 33L30.9 39M34.9 8.5L35.6 9.8M19.9 28.6L20.2 30.8M0.2 21.4L1.8 21.6M0.4 28.2L12.4 39.4M7.1 45.7L10.8 41.4M1.6 41.6L-0.1 43.6M9.9 57L11 55.7M45.5 32L42.5 34M40 35.6L35.8 38.4M75.2 50.7L78.4 50.1M49.2 55.1L47.4 57.7M46.4 52.8L37.1 45.1M53.6 65.8L45.6 76.6M56.5 80.9L54 79.3M53.4 90.9L55.9 92.5M64.1 25.9L64.8 21.6M54.3 0.1L54.7 -0.1L56.7 1.7M41.8 46.4L43.3 47.7L43.2 48.3M41.5 37.9L38.9 41M10.6 96.4L10.1 98.2M31.2 95L32.4 93M34.3 89.7L34.9 88.6L36.6 87.1M37.8 83.9L44.9 88.6M51.5 7.4L53.8 7.6M60.6 18.7L55.5 17.7M62 11L62.8 6.8M29.1 57.7L25.6 62.2M86.4 29.5L87.2 30.7L87.1 31.4L84.8 32.5M88.6 41L89.5 41.3L90.5 40.8M81.1 43.9L81.5 42.4M79.8 34.4L81.2 36.1L85.5 39.8M82.6 42.1L83.8 38.2M77.4 37L75.3 35.8M76.9 50.4L78.7 43.3M49.2 55.1L47.7 53.9M66.8 84.9L70.4 84.5M66.1 86.2L68.3 87.8M71.5 40.9L74.9 39.3M76.9 25.9L80.8 27.7M77.7 91.2L75.7 91L74.2 91.6L73.4 92.5L72.7 94.4L72.2 94.5M80.5 90.7L81.8 92.5L82.2 92.2L81.9 91.2M58.7 52.3L60.3 53.3M81.1 42.3L80.7 43.8M14.3 87.1L15.7 88.1M2.8 100.5L3.4 99M62.7 58.1L63.9 55.6M61.2 60.3L62.5 58.6M66.3 62.8L70.9 65.6M66.8 84.9L64.6 88.6M41.2 32L42.5 34M39.9 29.9L41.2 32M26.7 44.4L28.6 42M47.5 54.1L44.1 58.7M47.6 37.6L45.9 38.5M94.6 26.5L95.3 25.5L96.5 25M45.6 76.6L44.3 78.3M66 28.4L66.4 26.5M77.1 73.1L75.9 72.3M36.4 6.8L37.6 8.7M49.7 30.7L51 29.9M36.5 30.3L34.8 33M62.5 75.1L63.3 72.8M63.3 72.8L66.9 60.5M36.6 35L39.9 39.9M33.7 35.1L34.8 33.4M21.2 62L18.9 65M29.6 40.5L27 43.5M12.5 51.5L11 53.2M25.2 94.9L23.9 96.8M23.8 93.8L25.4 93.9M20.6 93.6L23.8 93.8M66.9 10.1L64.7 8.3M66.9 10.1L67.2 8.4M54.7 7.4L57.4 7.9M60.9 8.5L63.6 9.1M64.8 11.5L60.5 10.7M60.4 10.7L54.5 9.7M73 70.4L70.4 77.2M70.3 33L68.6 35.3M41.3 31.9L42.7 30.9M59 8.1L59.7 4.8M59 8.1L60.8 8.5M57.4 7.9L59 8.1M51 29.9L52.6 29M31.4 76.2L32.7 74.3M39.7 29.3L38.4 27.3M56.7 1.8L54.7 2.1M67.8 14.1L64.5 13.5M26 13.2L23.1 8.6M58.2 72.3L64.9 76.8M51.4 89.6L50.1 92M45.5 99.7L43 98.4M30.7 20.1L28.9 18.6M33.8 39.7L32.4 40.7M35.8 38.4L33.8 39.7M69.7 68.1L65.1 65.3M53.5 58.6L49.2 55.1M12.6 48.4L14.2 46.1M77 84.7L77.5 83.3M45.4 35L46.9 33.9M53.4 50.5L47.7 53.9M42.8 28L45.5 32M42.3 49.4L40.3 52.1M53.7 50.5L56.3 49M44.1 32.9L45.4 35M68.9 87.1L70.4 84.5M42.9 98.4L40.4 96.9M17.8 48.2L16.2 50M87.2 3.9L87.2 5.1L88.4 5.6M75.5 39.7L77.6 41M77.8 30.2L77.1 31.8M28.5 91.5L29.6 90M37.5 42.7L36.2 44.3M41.5 37.9L43 40.2M17 4.3L15.5 2M22.9 55.5L25.2 52.6M65.8 16.1L67.6 16.4M56.4 4.7L56.1 7.6M56.9 1L54.6 -0.9M3.6 98.4L0 97.2M55.3 82.7L54 85M77.2 26L79 26.2L83.1 24.5M58.6 88L54 85M15.9 96.3L17 93.5M54 85L49.7 82.2M59.7 62.2L57.5 60.9M73.1 62L71.9 63.5M63.7 58.6L65.1 59.5M60.8 89.6L62.3 87.1M57.8 100L56.8 101.9M70.2 77.6L69.4 79.6M48.8 42.8L53.6 39.4M49.2 88.1L50.4 85.9M9.8 39.9L8.5 38.7M27.2 5.9L29.3 4.4M55.1 29L53.1 28.7M14.3 87.1L14.8 86.6L15.3 87.1L14.9 87.5M63 91L60.8 89.6M64.6 88.6L63 91M63 91L59 97.6M4.3 34.8L2.3 37.1M4.4 43.2L6.5 40.8M59.6 15.1L57.8 14.8M30.3 61.6L31.8 60M83.8 88.1L83.1 85.7M84.8 42.7L84.3 44.8M27.6 3.7L29.2 6.2M26.8 63L27.7 61.8M45.5 44.1L45.8 46.8M44.6 47.5L43.2 48.3M44.6 47.5L43.1 45.2M47.3 43.8L48.7 42.9M47.3 43.8L45.7 41.3M43.1 45.2L45.5 44.1M45.5 49L44.6 47.5M41.8 46.4L43.1 45.2M40.5 47.9L41.8 46.4M46 48.9L46.4 52.2M42.8 98.6L45.4 99.9M-1.1 45.2L0.2 43.8M2.2 50.5L5.9 53.9M20.1 8.6L24 14.6M66.8 10.4L68.5 11.8M65.2 9.1L66.8 10.4M47.6 20.2L48.6 23.1M62.6 63.9L61.1 63M68.4 81.9L65.3 79.8M43.4 90.9L41.6 89.8M52.3 93.4L54.5 94.8M52.1 26.2L53.8 26.5M53.4 28.7L53.8 26.5M57 29.4L55.1 29M54.5 32.6L55.1 29M31.7 96L30.6 97.5M83 39.1L82.4 40.9M75.6 65.6L73 70.4M74.7 71.5L73 70.4M62.1 81L63.7 81.9M72.3 44.1L70.9 43.5M68.7 52.8L69 50.3M68.4 54.4L68.7 52.8M65.1 59.5L66.9 60.5M53.2 97.1L51.9 99.5M55.5 98.6L53.2 97.1M51 95.7L53.2 97.1M73.9 15.3L71.6 13.9M68.7 11.6L66.9 10.1M63 6.2L61.6 5M63.3 4.4L63 6.2M59.8 3.5L58.4 2.2M59.8 3.5L60.2 1.6M58.4 2.2L56.9 1M56.7 1.7L60.4 4.8M54.9 4.7L60.4 4.8M51.4 10.4L53.5 10.5M51 16.9L50.8 19.1M51.1 14.1L51 16.9M51 16.9L53.3 17.4M49.6 16.7L49.6 14.3M46.8 17.7L47.6 20.2M46 15.3L46.8 17.7M46.8 17.7L48.6 16.9M44.3 15.9L45.2 18.4M45.2 18.4L46.1 20.9M43.6 19.1L45.2 18.4M41.9 19.8L43.6 19.1M43.6 19.1L44.5 21.6M75.3 35.8L73.5 34.7M79 0.7L79.7 -1.9M13.8 32.7L15.1 31.3M43.1 87.4L41.6 89.8M49.5 19.4L47.6 20.2M42.8 28L44.1 27.1M36.7 13.5L34.3 15.4M33.2 14.1L30.2 16.3M40 29.8L42.8 28M43.8 35.9L45.8 38.7M12.9 46.4L11 44.8M71.6 33.8L70.3 33M71.9 63.5L74 65M69.8 62.1L71.9 63.5M66.9 60.5L69.8 62.1M62.4 61L66.3 62.8M73 70.4L69.7 68.1M65 79.6L61.5 77.4M60.8 89.6L58.6 88M50.4 85.9L56.3 89.4M58.6 88L57.3 90.1M26.1 72.8L16.1 66M8.9 92.2L10.1 93.1M7.9 95.4L14.6 97.7M9 93.8L7.2 95.2M52.7 87.3L51.4 89.6M48.4 53.5L51 52.1M39.3 65.2L37.1 63.7M38.6 30.8L37.4 28.9M64.8 21.6L65.3 19.1M62.3 18.6L65.1 19.1M26.6 16.7L24.4 20M5.6 94.6L7.2 95.2M79 0.7L77.1 0.3M85.2 2.1L83.4 1.7M46.1 31.7L47.5 32.7M75.6 65.6L76.4 67M60.8 57L63.2 58.4M43 71.5L41.4 73.7M44.7 69.2L43 71.5M61.3 27.8L63.7 28.2M59.1 27.4L61.3 27.8M59.5 25.2L59.1 27.4M83.1 1.6L81.1 1.2M25.9 58L23.7 60.5M45.5 39L43.3 40.6M38.9 41L37 40.2M40.7 41.7L38.9 41M38.9 41L37.5 42.7M59.5 69.8L61.6 65.9M35.1 23.6L37.7 26.3M27.5 49.9L29.7 51.7M27.5 49.9L29.5 47.4M4.9 79.4L6.5 80.5M4.9 79.4L2.4 82.8M48.1 7.5L51.5 7.4M7.9 81.5L6.5 80.5M43.3 40.6L43 41.1L41.3 42.2M67.2 22.1L66.4 26.3M69.3 22.4L67.2 22.1M20.6 1L17.8 0M59.1 75.8L56.9 74.4M6.5 40.8L8.5 38.7M-0.1 53.1L2.2 50.5M-0.6 48.1L2.2 50.5M30.1 72.6L32.7 74.3M27.4 70.9L30.1 72.6M2.3 37.1L0.4 35.3M65.1 65.3L62.6 63.9M61.6 65.9L62.6 63.9M37.7 67.6L39.3 65.3M4.1 17.7L4.3 16M71.6 14.3L73.4 15.6L74.6 16M11 53.2L8.7 56.1M56.9 74.4L58.4 71.9M76.5 19.4L76 21.7M59.6 91.6L64.2 94.5M57.3 90.1L59.6 91.6M59.6 91.6L60.8 89.6M56.9 74.4L55.1 73.2M1.1 87L-0.1 88.8M2.4 82.8L0.1 86.1M2.5 87.8L0.1 86.1M42.3 34.1L40 35.6M3 78L4.9 79.4M1.3 80.2L3 78M79.3 79.4L82.6 81.5M67.4 30.9L65.8 29.7M71.3 74.8L73.3 75.9M66.8 24.3L68.8 24.7M72.3 18.7L70.8 18.4M80.4 53.3L77.6 53.5M75.6 55.5L76.9 50.4M22.4 100.7L20.5 100M32 87.3L33.4 85M56.3 81L53.9 80.4L50.7 80.7M11.9 91L12.4 89.3M46.9 70.8L48.9 72.2M50.5 70L48.4 68.6M47.6 68L46.3 67.2M43.7 75.3L45.6 76.6M12.5 39.6L15.7 36.1L16.3 35.9L17 36.2M7.2 102.5L8 99.7M38.4 78L40 75.8M71.3 10.6L69.4 9.1M69.6 10L71.3 11.6M71.2 80.7L70.1 82.8M31.4 30.8L34 32.5M24.3 25.9L27.7 28.8M24.3 25.9L26.4 22.5M64.8 21.6L61.7 21.1M49.5 76.3L47.1 74.6M8 89.5L3.1 87M10.1 90.4L8 89.5M22.3 28.2L23.8 29.4M55.5 56.7L57.2 57.8M12.6 34.2L15 36.5M38.4 78L37 80M38.5 81L37 80M24.7 99.7L21.1 98.3M-1.6 42.2L0.4 40.6M72.9 91.5L72.2 91.1L71.5 92.1M3.6 98.4L1.4 100.5M6.8 95.4L3.6 98.4M68.6 64.3L67.3 66.5M13.3 87.5L15.1 88.8M32.4 93L34.3 89.7M3.8 98.4L7.4 95.2M5.7 99L3.8 98.4M6.8 95.4L5.7 99M24.6 34.3L29.7 39.2M-0.9 92.4L1.2 93.1M30.2 100.5L28.3 99.4M19.2 97.6L18.6 99.3M21.1 98.3L19.2 97.6" fill="none" stroke="#000" stroke-width="0.3" stroke-linecap="round" stroke-linejoin="round"/></svg>
