<svg xmlns="http://www.w3.org/2000/svg" viewBox="0 0 100 100"><path d="M10 -0.2L10.9 1.1L10 -0.2ZM8.6 -0.1L9.3 1.6L8.7 0ZM-0.1 32.9L1.1 33.9L2.3 33.8L2.2 31.3L3.1 30.5L4 28.7L4.3 29.5L2.4 31.5L2.6 33.1L3.6 33.8L2.8 33.4L2.2 34L1.2 34.1L-0.1 33.1ZM8.4 0L8.2 1.4L8.5 0ZM-0.3 2L2.1 0ZM43.3 7.5L42.3 6.8L42.4 6.5L43.7 6.8L44.2 5.7L42.7 4.7L42.7 4.4L44 3.4L44 2.5L44.5 1.6L45 1.5L44.7 1.3L45.1 0.4L45.6 0.6L45.9 0.1L46.9 0.6L46 -0.1ZM43.3 7.5L50.5 11ZM54.2 4.1L50.5 11ZM56.4 -0.1L54.2 4.1ZM76.1 25.4L74.9 26.2L73.3 28L66.6 38.4ZM66.6 38.4L64.4 41.4L63 44.3ZM63 44.4L61.5 46.6ZM59.1 45.6L61.2 47ZM59.1 45.6L64.5 37.6L67.4 34.2L74.1 24.5ZM74.1 24.5L76.1 25.4ZM61.2 47L64.5 47.4ZM63 44.4L61.5 46.6ZM63 44.4L65.2 42.4L68 39.1ZM68 39.1L74.5 29.2L75.6 28.3L76.1 27.2L76.1 25.4ZM77.7 25.3L77.8 25.8L79.8 26.7L79.3 26.9L79.3 27.9L78.2 28.7L77.4 28.9L76.9 29.5L76.4 29.4L75.4 30.3L69.5 39.9ZM69.5 39.9L67.3 43.1L67 44.4L66.8 44.1L66.2 44.9L68.2 45.6L68.1 46L65.7 45L65.1 46.1ZM84.5 1.4L86.6 1.4L87.7 2.4L88.5 3.8L92.3 5.9L93.5 6.1ZM92.1 7.2L91.4 5.8L88.4 3.9L87.4 2.2L86.9 1.9L85.2 1.8ZM18.2 77.7L18.5 75.3ZM18.5 75.3L18.9 73.6L19.6 74L19.6 73.7L18.8 73.3L19.2 71.6L19.9 72L20 71.6L19.4 71.5L19.5 71L20.8 71.2L20.8 70.9L19.1 70.6L19.2 69.1L21.1 69.4L21.2 69.1L19.5 68.8L19.2 68.4L19.9 68.3L19.9 67L18.2 66.8L18.4 65.2L21 65.4L21.1 64.8L18.4 64.5L18 64L19.5 64.2L19.5 64L18 63.9L18 63.4L20.7 63.4L20.6 62L20.1 62L20.1 60.3L20.9 60.6L20 59.8L21.3 60L22.4 60.7L21.9 60.2L22 59.6L20.2 59.3L20.4 57.6L19.8 57.4L22.2 57.1L23.1 55.7L22.7 55.5ZM22.7 55.5L22.2 55.3L22.3 55L23.7 55.3L23.9 54.6L22.4 54.2L23 51.8L23.2 51.8L23.2 52.5L23.6 51.9L23.9 51.9L23 51.7L23.1 51.4L23.7 51.1L24.1 49.7L24.9 49.2L25.4 47.9L25.3 46.9L24.7 45.6L25.5 45L24.8 44.7L24.8 44L25.9 43.9L24.7 43.5L26.3 43.8L24.7 43.3L24.8 43.1L26.4 43.4L24.9 43L25 42.6L26.5 42.9L25 42.5L24.9 42L26.6 42.2L24.9 41.8L25 41.1L24.6 40.6L24.8 39.8L24.2 40.5L24.3 40.1L22.5 39.6L22.7 39L22.4 38.8L22.5 38.2L22.9 38.3L23.1 37.6L23.9 37.4L24.9 37.9L25.3 36.7L27.3 37.7L25.5 36.4L26.2 35.2L27.7 36L27.8 35.8L26.4 35L26.6 35.1L26.6 34.6L28.1 35.7L28.3 35.3L26.7 34.4L27.3 33.4ZM27.3 33.4L26.5 32.8L27.7 33.3L28.6 32.7L28.9 32.2L28.7 30.6L29.9 28.6L29.7 28.4L30.5 26.8L31.1 26.8ZM31.1 26.8L32.6 25.8L33.3 24.6L32.5 24.1L32.7 23.3L32.1 22.9L32.6 22.3ZM32.6 22.3L32.9 21.6L33.5 22L35 19.5L35.8 19.9L35.2 19.2L35.5 18.9L36 19.1L36.9 17.6L37.3 17.8L39.7 13.8L39.2 13.5L39.8 13.6L40.1 13.1L39.7 12.6L40.2 12.9L41 11.5L40.4 11.1L40.5 10.3L41.6 10.5L41.3 9.4L42 9.4L42.6 9L42.8 8L43.3 7.5ZM43.3 7.5L50.5 11ZM50.5 11L48.7 14.3ZM48.2 15.3L46.1 19.9L45.2 21.7L44.9 21.7L43 25.3ZM43 25.3L41.7 27.7ZM41.4 28.3L41.1 28.9L41.6 29.1L40.1 31.9ZM36.9 36.5L34.6 40.6L33.7 43.6ZM32.5 57.9L32.4 60ZM32.2 61.8L31.5 67.3ZM31.1 69.9L29 69.6ZM29 69.6L28.3 74.1ZM28.3 74.1L28.4 73.7L29.2 73.9L29 74.9L28.3 74.7L28.3 74.4ZM28.3 74.4L27.6 78.3ZM32.8 53.8L32.6 56.9ZM18.2 77.7L27.5 79.1ZM27.8 100.9L23.7 97.6ZM34.7 94.3L34.4 95L35.8 95.5L35.6 96.1L34.1 95.9L31.8 97.7L32 98L32.6 97.5L33.3 98.4L31.2 100.7L30.6 99.7L31.8 98.7L31.4 98.1L28.5 100.6ZM31.7 92L34.7 94.3ZM23.7 97.6L24.8 97.8L29.4 95.1L30.1 95.1L31.1 94.4L31.7 93.5L31.7 92ZM64.5 47.4L64.9 47.5L64.3 47.8L64.8 48.2L64.1 49.3L63.5 49.5L63 50.6L63.2 51.3L62.7 51.6L63.1 51.9L62.4 52.4L62.1 53.6L62.7 56.8L62.5 58L63.3 60.6L62.9 63.7L63.8 63.7L63.9 64.2L64.9 64.1L65.2 64.7L64.9 64.9L62.7 64.2L62.8 65.2L62.3 66.3ZM61.2 47L64.5 47.4ZM59.1 45.6L61.2 47ZM55.6 58.9L55 56.1L55.7 56.2L55 55.8L55 55.2L56.2 55.7L56.1 52.9L56.6 50L59.1 45.6ZM62.3 66.3L61.2 68.5L60.7 68.4L60.8 69.2L59.5 71L58.5 74L58.7 74.3L57.8 76.3L58.2 80.6L59.3 81.6L59.3 82L57.6 80.7L57.6 79.2L56.3 77.4L56 77.6L57.1 79.2L57 80.1L55.1 78.3L54.9 78.5L56.2 79.8L55.6 80.5L57.1 81.7L57.1 82L56.4 81.6L56.6 81.9L56.3 82.1L56.6 82.5L55.7 82.8L57.3 84.8L55.8 83.4L55.5 83.6L56.2 84.7L55.2 83.7L54.8 83.8L55 83.5L54.1 83.2L53.1 82.2L53.3 81.4L52.8 81.3L52.6 80.3L52.1 80.3L52.2 79.9L51.1 80ZM51.1 80L47.6 80.4L47.6 81L47.3 80.6L46.6 80.6L46.4 81.1L45.3 80.7L44.8 81.5L44.3 81.4L44.1 81L42.6 81.3ZM42.1 82L42.3 82.4L41.6 82.1L40.4 83.5L41.2 84L40.9 85.1L39.6 84.5L39.2 85.2L40.5 85.9L40.3 86.4L39 85.8L38.6 86.5L40 87.1L40 87.4L39.4 87.6L39.7 87.6L39.6 88.1L39.1 88.9L37.8 88.3L37.4 89L38.7 89.6L38.5 90.2L37.2 89.6L36.8 90.3L38.2 90.9L38 91.4L36.5 90.9L36.3 91.5L38.8 92.4L38.7 92.8L36 92L35.7 92.7L37.1 93.2L36.9 93.8L35.3 93.2L35.1 93.9L36.4 94.4L36.1 94.9L34.7 94.3ZM31.7 92L34.7 94.3ZM31.7 92L30.5 90.6L29.8 90.4ZM29.8 90.4L30.6 84.3ZM30.6 84.3L30.9 84L30.8 84.7L31.1 84.4L31.2 85L31.2 84.3L31.5 84.7L31.6 84.2L31.9 84.8L31.7 83.8L32.1 84.4L32.4 84L32.6 84.6L32.4 83.6L33.6 83.2L35.3 81.7ZM37.8 81L37.7 80.3L38.4 80.8L38.9 80.4L38.4 79.8L38.7 79.6L38.4 79.2L40.8 77.7L46.4 76.6L46.4 77.4L50.8 76.8ZM50.8 76.8L50.8 76.5L52.8 76.2L53.6 75.4L55.5 69.9L56.9 61.4L55.6 58.9ZM18.2 77.7L18.5 75.3ZM18.2 77.7L17.9 77.4L15.6 77.1L15.4 76.5L15 76.4L14.8 77L7.8 75.8L8 75.4L6.2 74.5L13.1 75.6L13 75L12.6 74.9L12.9 73.7L13.5 74.2L13.4 74.9L14 74.8L13.7 75.7L15.7 75.8L16.3 75.4L17.4 75.6L17.6 75.3ZM19.4 -0.1L19.3 0.3L22.6 1.8L19.9 0.6L18.9 0.6L18.7 1.2L19 2.1L19.8 0.9L20.1 1L19.3 3L20.9 3.9L19 2.9L18.7 3.9L19 4.7L18.4 5.4L20.2 6.6L18.3 5.8L17.3 7.7L18.1 8.4L17 7.8L15.5 8.7L17.2 9.8L16.8 9.7L16.6 10.6L15.5 10.6L16.2 11.5L15.8 12L15.9 12.4L15.2 13.2L15.8 11.5L15 10.5L15.4 9.8L16.2 10.4L16.6 9.9L16.3 9.4L15.2 9L14.8 9.2L17 7.2L16.7 7L16.5 7.6L16 6.9L15.7 7.1L15.2 6.6L14.9 6.8L15.5 5.2L14.5 6.1L17.5 1.9L18 1.8L18 2.3L18.5 2.6L18.1 1.2L18.4 1.2L18.4 0.8L17.6 0.4L15.7 2.1L15.9 2.5L16.3 2.3L16.2 2.7L15.5 2.5L15.7 3.3L11 9.9L11 9.5L10.8 9.8L10.2 9.1L10 9.3L8 7.4L9.8 8.7L9.3 7.8L10.4 7.3L11.1 8.7L10 8.8L11 9.2L13.1 6.6L11.4 8.4L10.7 7.5L11 7.1L10.8 6.5L11.9 5.9L12.7 5.9L13 5.5L13.3 5.7L13.2 6.5L14.3 4.9L13.3 5.5L14 5L13.8 4.5L12.5 5.7L12.5 5.2L11.9 5.1L12 5.7L11 6L10.5 5.2L10.9 6.2L10.7 7L9.7 7.4L9.3 7.1L9 7.6L8.1 7.1L7.2 7.4L6.9 7.8L6.9 9.1L6.5 10L5.9 10.1L6.3 9.9L6.9 8.8L6.5 8L6.8 7.3L7.7 7L8.6 5L9.2 4.7L9.7 5L9.8 4.4L10.5 3.9L11.3 4.3L11.7 4.1L11.1 3.6L11.7 3.2L10.9 2.4L12.1 3.8L12.8 3.7L12.4 3L13.3 2.9L13.5 2.5L13.1 2L13.8 1.4L13 1.3L12.7 0.8L12.8 -0.2L18 -0.1L18.5 0.4L19.1 0.2L19.2 -0.1ZM57.9 22.9L57.4 23.2L56.5 23L57 21.8L56.7 21.7L56.9 21.2L56.6 21.3ZM58.4 23.4L57.5 23.8L57.9 22.9ZM55.8 23.4L56.8 23.2L57.5 24.2L58.4 23.7L58.4 23.4ZM56.3 20.8L56.1 21.8L55.7 21.5L55.4 21.9L55.5 23.1ZM94.9 10.8L94.8 5.1ZM94.9 10.8L92.6 13L93.2 12L90.2 16.3L89.1 17L85.9 20.5L83.3 22.5L82.5 22.8L81.3 21.5L79.4 21.3ZM79.4 21.3L78.5 22.1L77.7 23.7L77.7 25.3ZM74.1 24.5L76.1 25.4ZM74.1 24.5L75 22.6L74.7 21.5ZM76.5 20.1L74.7 21.5ZM77.7 18.9L79.3 17.3ZM79.3 17.3L81.6 17.7L83.4 18.9L84.1 18.8L86.8 16.8L87.3 15.1L89.6 11.6ZM89.6 11.6L90.5 11.2L92.3 8.7L92.4 8L92.1 7.2Z" fill="#000" fill-rule="evenodd"/><path d="M47.3 99.8L46 102.4M72 56.8L71.9 56L72.6 54.6M76.7 49.8L75.7 52.1L74.4 53.2L72 54.3M82.2 77.7L81.1 74.3L81.9 74L81.5 72.6L83.1 72.1L82.8 71L86 69.8M86.1 73.3L85.9 72.4L86.9 71.6L84.1 63.8L82.6 62L79.5 61.3L77.7 60.4L76.8 59.6L75.2 55.9L74.1 55.2L68.7 52.9L66.9 52.7L65.7 52.9L59.6 56.7M88.3 65.7L84.5 65.2M54.5 -4.4L30.9 37.3L28.7 44.8L23.2 78.5M83.6 3.1L83.3 7.7L82.1 9.3L80.5 10.7L78 14.7M0.8 -0.4L-1.1 0.7M35.8 95.6L42.2 98L44.9 99.4L45.5 98.4L47.3 99.4L47.2 99.8M47.2 99.8L47.2 100M99.4 19.2L99.7 18.4L100.5 17.7M23.2 78.5L22.7 81.4L21.3 84.8M78 14.7L77.3 16L77.6 17.1L79.6 19.8M78 14.7L78 14.7M83.7 2.1L83.6 2.9M83.6 2.9L83.6 3.1M82.6 -0.1L83.2 0.4M82.9 0.8L83.7 2.1M82.8 0.6L82.9 0.8M83.3 0.5L83.3 1.4M83.2 0.4L83.3 0.5M82.6 -0.1L82.8 0.6" fill="none" stroke="#000" stroke-width="1.2" stroke-linecap="round" stroke-linejoin="round"/></svg>
