<svg xmlns="http://www.w3.org/2000/svg" viewBox="0 0 100 100"><path d="M80.1 35.5L78.2 37.2M25.3 101.1L24.1 96.9M19.2 78.9L18.9 80.5M18.9 80.5L18.8 83.5L19.2 86.1M19.3 80.4L19.6 78.8M20.1 76.6L20.5 74.7M83.5 17L82.8 20.1M23.4 97.4L24.3 96M22.9 88.4L21 88.2L20.1 87.1M19.7 87.7L20.1 89.2M25.3 101.1L24.6 96.8L25.3 94.7M23.1 97.7L24.5 100.1M19.7 87.7L20.3 89.1M19.2 83.7L19.3 80.4M23.4 95.2L22.3 92.8M22.3 92.8L20.8 89.5M22 93L23.1 95.3M23.8 97.2L24.7 100.2M11.6 90.9L13.6 89.8M94.6 3L92.4 -0.1M87.5 10.2L89.9 13.6M82.3 18.3L79.5 19.2M22.6 87.2L22.3 88L21.7 88.4M47.1 30.8L42.3 32.5M47.1 30.8L41.5 32.4M41.5 32.4L40.5 32.6L39.9 31.9L40.2 30.7L41.2 30.3L41.6 31L41 32.2M41 32.2L39.6 34.3M44.7 26.6L42.9 29.3L40.6 30.1M37.7 33.3L34.3 34.8M31.9 35.1L29.5 35.1M45.6 31.9L47.5 31M43.2 32.8L45.2 32.1M38.2 34.4L43.2 32.8M38.2 34.4L40.6 33.7L41.1 33.9M40.6 34L42 31.9M42.4 31.2L43.8 28.5M36.9 36.8L36.6 35.8L37.5 35.3M41.4 35.9L42.2 33.5L43.2 32.8M31.1 44.8L29.4 47.3M38.1 36.4L32 43.5M37.3 38.7L38.3 37.4M37.3 38.7L39.1 37L41.4 35.9M35.4 40.6L37.3 38.7M33.6 44.1L33.1 43.5L33.3 42.8M39.6 34.3L38.1 36.4M39.4 36L40.5 36.4L41.4 35.9M39.9 34.2L37.2 38.2L32 43.5M43.3 29L41.3 32.1M40.8 33.3L41.6 32M43.3 29L41 32.2M42.4 31.2L43.7 29.3M38.9 33L35.5 33.6M41.6 32L43.8 28.5M0.6 44.5L-1.1 44.5M-1.5 45.2L0.7 44.9M11 41.4L15.5 36.2L17.6 34.9L20 34.2M10.2 41.7L7.7 43.3L4.6 44.1M32.3 35.3L29.5 35.1M32.9 35.6L36.3 35M32.9 35.5L35.8 34.9L42.4 32.7M92 -0.2L93.8 2.6M43.8 28.5L45.2 26.2M52.6 10.7L50 17.5M54 7.7L55.9 3.2L59.1 -1.5M50.3 17.6L52.2 12.4M47.9 21.6L46.1 24.5M50 17.5L47.9 21.6M31.3 44.5L29.9 47.1L28.8 50.5M32.9 42.7L37.4 38.3L40.2 34.1M33.1 42.7L35.4 40.6M28.4 52L27.9 53.9M27.5 55.2L25.9 58M28.1 54.3L28.8 51.8M29 50.5L30.1 47.2L31.5 44.6M28.6 50.4L28.4 52M21.8 68L21.3 70.1M20.3 74L19.7 76.8M21.5 70.3L22.4 66.6M26.1 58.2L28.1 54.3M20.5 89.6L22 93M20.4 88.6L19.9 87.1M20.2 89.7L20.8 92.7M49.9 14.2L50.9 13.5L51.3 13.8L50 17.5M53.1 9.5L51.7 12.7L50.7 13.5M85.9 10.4L84.1 14.2M70.5 96.9L73.5 93.8M73.5 93.8L74.7 92.6M74.7 92.6L76.2 91.1M73.3 93.5L70.2 96.6M69.4 97.5L66.6 100M77.4 89.9L79.9 87.5M89.1 78.2L91.3 75.7M76.3 90.6L74.5 92.4M91.3 75.7L93.3 73.6M91.1 75.7L88.9 77.9M70.5 96.9L73.5 94M76.5 21.5L81.8 19.8M95.5 68.3L95.8 69.9M83.8 17.1L84.5 14.4M90 53L86.2 38.7M82.8 20.1L82.6 22.9M83.1 22.8L83.2 20.9M82.4 21.9L82.5 24.7M84.5 18.9L90.3 16.9M58.9 27.5L60.5 27M50.1 45.9L52.7 46M97.7 32.5L100.5 31.1M92.1 59.4L91.4 57.4M86.4 38.1L85.8 35.5M85.7 36.1L85.2 33.7M35.9 89.4L38.3 87.9M74.6 93.1L76.1 91.4M80.9 86.6L82.8 84.8M80.9 86.4L82.8 84.6M82.6 84.3L81.1 85.8M80.2 86.7L77.6 89.3M84 83.3L85.6 81.7M84.7 31.5L84.1 29.3M54.8 45.8L52.7 45.7M52.7 46L54.7 46M52.7 45.7L49.1 45.5M39 33.1L36 34.3M38.6 44.8L41.2 45.1M24.9 34.6L28.2 35.7M56.5 28.3L58 27.8M85.9 38.3L89.8 53.1M82.9 23.2L83.1 20.1M82.6 22.9L82.6 25.1M84 29.6L83.6 27.2M83.1 20.1L83.8 17.1M83.1 24.7L82.9 23.2M27.6 46.6L28.6 49L28.6 50.4M46.1 24.5L45 26.1M45.2 26.2L46.3 24.6M51.9 14.1L53.2 9.9M48.2 21.8L50.3 17.6M49 20.3L49.9 19M46.3 24.6L48.2 21.8M30.2 48.6L31.3 46.6M23.5 62.5L25 60.4L25.9 59.7L27.3 59.6L28.5 60.6M23.4 59.6L23.9 59.8L23.9 60.4L22.9 63M27.5 55.2L25.8 57.8L24.6 58.8M28 59.8L27 58L28 55.3M66.6 100.4L69.6 97.7M17.7 71.8L19.4 72.7L19.9 73.3L19.3 78.1M21.3 70.1L20.6 71.4M31.9 36.9L33 36.9L34.9 35.7M40.6 30.1L39.8 30.9L39.2 32.7M66.1 25.1L67.7 24.5M42.6 85.3L40.4 86.6M83.9 83.7L85.7 81.8M91.5 74.8L88.9 77.9M86.8 79.5L85.6 80.8M62.3 75.7L60.1 76.8M65.2 74.4L67.2 73.4M58.2 77.7L56.4 78.6M44.8 84.4L46.3 83.6M50.6 81.6L55.3 79.3M50.1 81.5L47.5 82.8M67.9 73.1L69.5 72.4M69.5 72.4L71.8 71.2M76.4 90.3L74.5 92.1M82.6 83.9L81.2 85.4M73.4 93.1L70.2 96.6M93.9 2.7L93.9 3.7L91.8 6.4L86.7 10M86.4 10.3L84.4 14.1M86.6 10.3L91.4 6.9M94.1 2.6L92.3 -0.1M1.5 101L0.6 98.5M0.3 98.5L1.2 101.1M51.2 29.6L52.8 29.1M52.8 29.1L56.1 27.9M81.8 24.9L82.5 25.3L83 26.7M85.8 10.8L84.4 14.1M84.5 14.4L85.8 11.4L86.6 10.3M85.6 11L84.1 14.2M84.4 14.1L83.5 17M85.2 13.1L86.4 10.8M62.1 26.4L66.1 25.1M81.8 24.9L82.4 24.6L83 23.4L83.8 17.1M32.7 34L30.9 35L28.2 34.9M34.9 35.7L40.4 33.9L41.1 33.9M69.3 24L73.5 22.6M-0.1 95.9L6.6 93.5M90.5 10.1L87.9 9.6M100.1 12.3L91.7 15.1M82.7 19.5L84.5 18.9M92.2 -0.1L93.9 2.7M84.5 15.3L86.1 11.5M97.1 23.5L99.8 26.8M84.1 32.1L85.3 36.7M83.1 33L81.8 34.1M95.1 20.7L96 22M97.7 11.6L93.1 10.7M79.6 43.1L81.2 41.9M41.1 33.9L41.5 35.1L40.6 36.1L40 36L39.8 35.5L40.6 34M34.9 35.7L37.5 35.3M86.4 38.1L89.2 36.1L91.3 35.2M70.9 43.6L67.8 46M49.9 45.9L52.2 46.2M98 73L100.8 78M98.1 72.6L97 70.5M74.5 21.7L76.5 21M21.2 73.2L22.2 73.9L22.3 74.7L21.4 74.9L21 73.7M20.6 71.4L19.8 71.9L17.8 71.5M19.8 77.8L20.7 75.9L22 75.2M26 94.1L29 93M93.1 15.4L99.1 13.4M76.5 21L79.8 19.9M98.3 68L96.9 69.4M96.6 70L95.5 71.1M93.9 72.9L95.6 71.2M101.1 65.5L97.1 69.5M99.4 67.1L97.1 69.4M95.6 71.2L96.7 70.1M95.5 71.1L93.8 72.8M97.2 69.7L101.3 65.6M97.2 69.8L99.9 67.2M94.1 73.1L96 71.2M93.7 72.9L91.1 75.7M41 32.9L33.4 35.2M85.5 82.2L86.9 80.8M78.6 87.8L78.4 88.8L79 89.1M74.6 93.2L79 89.1M51.5 30L56.5 28.3M80.5 87.3L80.7 86.1L80.1 85.7M82.9 27L84.1 32.1M19.5 86.6L21.8 86M67.6 24L71.3 22.8M79.5 25.5L80.2 25.7L81.8 24.9M32.6 44.3L34.6 44.5M47.3 31.4L49 30.8M45.6 32L47.3 31.4M42.4 32.7L47.5 31M94.8 71.4L93.4 72.8M87 29.4L85.3 30.9M92.2 16.8L93.1 18M41.5 32.4L38.9 33M22.7 34.2L24.9 34.6M36.3 35L38.2 34.4M26.8 35L29.9 35.6L32.1 35.6M58.1 -0.3L55.8 3.1L53.8 7.6M84 14.4L83.3 16.9M29.5 92.7L33.7 90.6M46.3 83.6L50.2 81.8M95.2 67.2L93.1 63.1L90.9 56.2M94 73.4L96.3 71.2M85.8 37.3L84.3 31.5M85.1 33.6L84.7 31.5M90.7 56.4L92.9 63.2L95 67.3M82.9 25.8L85.2 35.6M90.4 26.6L88.8 27.9M74.8 22.1L76.5 21.5M76.5 21L75.9 20.3L75.2 20.1M81 19.5L82.5 19M61.1 26.2L64.8 25M96 22L97.1 23.5M87.9 17.2L91.1 16.1M85.3 18L87.9 17.2M83.9 83.8L85.5 82.2M89.1 78.5L91.4 75.9M97.8 69.3L99.9 67.2M84.6 81.7L83.1 83.2M78.6 87.8L77.3 89M100.1 76.2L98.5 73.4M53.4 9.3L54 7.7M53.8 7.6L53.1 9.5M15.4 88.7L16.9 87.9M43.5 45.3L46.7 45.6M40.6 44.8L38.6 44.5M62.3 75.7L64.4 74.7M13.6 89.8L15.4 88.7M25.5 34.3L20.5 33.7L16.9 34.8L14.4 36.7L10.6 41.3M0.7 44.9L6.8 44L8.9 43.1L10.7 41.8M74.5 92.4L73.3 93.5M49.9 19L51.4 17M89.8 53.1L90.3 55M90.9 56.2L90 53M27.1 45.2L27.6 46.6M91.1 15.3L84.1 17.6M94.5 23.2L96 22M96 22L94.6 23M92.4 25L94.1 23.5M33.4 90.4L29.3 92.3M60.3 77L62.3 75.7M21 73.7L21.2 72.2M8.1 92.7L10.3 91.6M28.7 43.9L31 44.1M33.3 42.8L35.4 40.6M29.4 47.3L28.6 47.8L27.6 46.6M20.8 71.9L20.4 73.8M22.4 66.6L23.1 63.5M22.6 64.2L22.1 66.4M46.6 45.3L43.6 45.1M93.3 34.5L95.9 33.4M82.8 84.6L84 83.3M85.9 81.5L87 80.3M58.5 77.8L60.3 77M76.3 38.9L74.8 40.2M44.7 26.6L43.3 29M23.5 62.5L24.2 61M24 60.9L23.2 62.7M82.6 22.9L82.9 25.8M95.8 68.5L95.2 67.2M16.4 42.4L14.8 42.2M24.7 60.3L25.9 58.5M25.7 58.3L24.4 60.3M4.6 44.1L0.6 44.5M20 34.2L22.7 34.2M28.2 34.9L25.5 34.3M24.9 34.6L26.8 35M60.5 27L62.1 26.4M90.3 16.9L91.9 16.4M76.2 91.1L77.4 89.9M77.6 89.3L76.4 90.3M77.6 89.3L76.3 90.6M76.1 91.4L77.4 89.9M81.2 85.4L80.2 86.7M86.9 80.8L88.1 79.6M19.4 85.4L19.2 83.7M21.1 72L21.5 70.3M22.1 66.4L21.8 68M28.8 50.5L28.4 52M29.4 50.5L30.2 48.6M38.9 36.5L40 34.8M44.7 27.4L45.5 26M43.7 29.3L44.7 27.4M52.2 12.4L52.9 10.8M85.4 36.3L85.9 38.3M84 30.2L83.1 25.7M83.1 25.7L82.9 23.2M91.6 6.7L93.9 3.9L94.1 2.6M22.4 85.8L24.4 85.3M24.3 96L25.3 94.7M28.6 92.5L25.7 93.6M40.1 86.9L42.7 85.5M38.2 87.8L36.5 88.8M56.5 78.7L58.3 77.9M56.4 78.6L50.5 81.4M81.2 41.9L82.4 41M91.3 35.2L93.3 34.5M99.2 13.3L100.7 12.8M91.6 15.9L93.1 15.4M79.5 19.2L75.9 20.3M49.5 30L47.1 30.8M36 34.3L34.3 34.8" fill="none" stroke="#000" stroke-width="0.7" stroke-linecap="round" stroke-linejoin="round"/></svg>
